<mxfile host="app.diagrams.net" agent="Mozilla/5.0 (Windows NT 10.0; Win64; x64) AppleWebKit/537.36 (KHTML, like Gecko) Chrome/141.0.0.0 Safari/537.36" version="28.2.7">
  <diagram name="Page-1" id="2YBvvXClWsGukQMizWep">
    <mxGraphModel grid="1" page="1" gridSize="10" guides="1" tooltips="1" connect="1" arrows="1" fold="1" pageScale="1" pageWidth="850" pageHeight="1100" math="0" shadow="0">
      <root>
        <mxCell id="0" />
        <mxCell id="1" parent="0" />
        <mxCell id="487QMyiR4DsZ86P_ElJE-1" value=":GUI" style="shape=umlLifeline;perimeter=lifelinePerimeter;whiteSpace=wrap;html=1;container=0;dropTarget=0;collapsible=0;recursiveResize=0;outlineConnect=0;portConstraint=eastwest;newEdgeStyle={&quot;edgeStyle&quot;:&quot;elbowEdgeStyle&quot;,&quot;elbow&quot;:&quot;vertical&quot;,&quot;curved&quot;:0,&quot;rounded&quot;:0};fillColor=#EA6B66;" vertex="1" parent="1">
          <mxGeometry x="510" y="100" width="100" height="1740" as="geometry" />
        </mxCell>
        <mxCell id="487QMyiR4DsZ86P_ElJE-2" value="" style="html=1;points=[];perimeter=orthogonalPerimeter;outlineConnect=0;targetShapes=umlLifeline;portConstraint=eastwest;newEdgeStyle={&quot;edgeStyle&quot;:&quot;elbowEdgeStyle&quot;,&quot;elbow&quot;:&quot;vertical&quot;,&quot;curved&quot;:0,&quot;rounded&quot;:0};" vertex="1" parent="487QMyiR4DsZ86P_ElJE-1">
          <mxGeometry x="45" y="70" width="10" height="1670" as="geometry" />
        </mxCell>
        <mxCell id="487QMyiR4DsZ86P_ElJE-3" value="GetbookingDetails()" style="html=1;verticalAlign=bottom;endArrow=block;edgeStyle=elbowEdgeStyle;elbow=vertical;curved=0;rounded=0;" edge="1" parent="1">
          <mxGeometry x="-0.0369" relative="1" as="geometry">
            <mxPoint x="570" y="220" as="sourcePoint" />
            <Array as="points">
              <mxPoint x="725.6" y="220" />
              <mxPoint x="575" y="210" />
            </Array>
            <mxPoint x="795.6" y="220" as="targetPoint" />
            <mxPoint as="offset" />
          </mxGeometry>
        </mxCell>
        <mxCell id="487QMyiR4DsZ86P_ElJE-4" value="Review booking and total fare" style="html=1;verticalAlign=bottom;startArrow=oval;endArrow=block;startSize=8;edgeStyle=elbowEdgeStyle;elbow=horizontal;curved=0;rounded=0;" edge="1" parent="1">
          <mxGeometry x="0.0083" relative="1" as="geometry">
            <mxPoint x="330" y="200" as="sourcePoint" />
            <mxPoint x="550" y="200" as="targetPoint" />
            <Array as="points">
              <mxPoint x="530" y="200" />
            </Array>
            <mxPoint as="offset" />
          </mxGeometry>
        </mxCell>
        <mxCell id="487QMyiR4DsZ86P_ElJE-5" value=":ControllerClass" style="shape=umlLifeline;perimeter=lifelinePerimeter;whiteSpace=wrap;html=1;container=0;dropTarget=0;collapsible=0;recursiveResize=0;outlineConnect=0;portConstraint=eastwest;newEdgeStyle={&quot;edgeStyle&quot;:&quot;elbowEdgeStyle&quot;,&quot;elbow&quot;:&quot;vertical&quot;,&quot;curved&quot;:0,&quot;rounded&quot;:0};fillColor=#EA6B66;" vertex="1" parent="1">
          <mxGeometry x="750" y="100" width="100" height="1740" as="geometry" />
        </mxCell>
        <mxCell id="487QMyiR4DsZ86P_ElJE-6" value="" style="html=1;points=[];perimeter=orthogonalPerimeter;outlineConnect=0;targetShapes=umlLifeline;portConstraint=eastwest;newEdgeStyle={&quot;edgeStyle&quot;:&quot;elbowEdgeStyle&quot;,&quot;elbow&quot;:&quot;vertical&quot;,&quot;curved&quot;:0,&quot;rounded&quot;:0};" vertex="1" parent="487QMyiR4DsZ86P_ElJE-5">
          <mxGeometry x="45" y="100" width="10" height="1640" as="geometry" />
        </mxCell>
        <mxCell id="487QMyiR4DsZ86P_ElJE-7" value=":Booking" style="shape=umlLifeline;perimeter=lifelinePerimeter;whiteSpace=wrap;html=1;container=0;dropTarget=0;collapsible=0;recursiveResize=0;outlineConnect=0;portConstraint=eastwest;newEdgeStyle={&quot;edgeStyle&quot;:&quot;elbowEdgeStyle&quot;,&quot;elbow&quot;:&quot;vertical&quot;,&quot;curved&quot;:0,&quot;rounded&quot;:0};fillColor=#EA6B66;" vertex="1" parent="1">
          <mxGeometry x="910" y="100" width="100" height="1740" as="geometry" />
        </mxCell>
        <mxCell id="487QMyiR4DsZ86P_ElJE-8" value="" style="html=1;points=[];perimeter=orthogonalPerimeter;outlineConnect=0;targetShapes=umlLifeline;portConstraint=eastwest;newEdgeStyle={&quot;edgeStyle&quot;:&quot;elbowEdgeStyle&quot;,&quot;elbow&quot;:&quot;vertical&quot;,&quot;curved&quot;:0,&quot;rounded&quot;:0};" vertex="1" parent="487QMyiR4DsZ86P_ElJE-7">
          <mxGeometry x="45" y="150" width="10" height="1590" as="geometry" />
        </mxCell>
        <mxCell id="487QMyiR4DsZ86P_ElJE-9" value=":Payment" style="shape=umlLifeline;perimeter=lifelinePerimeter;whiteSpace=wrap;html=1;container=0;dropTarget=0;collapsible=0;recursiveResize=0;outlineConnect=0;portConstraint=eastwest;newEdgeStyle={&quot;edgeStyle&quot;:&quot;elbowEdgeStyle&quot;,&quot;elbow&quot;:&quot;vertical&quot;,&quot;curved&quot;:0,&quot;rounded&quot;:0};fillColor=#EA6B66;" vertex="1" parent="1">
          <mxGeometry x="1080" y="100" width="100" height="1740" as="geometry" />
        </mxCell>
        <mxCell id="487QMyiR4DsZ86P_ElJE-10" value="" style="html=1;points=[];perimeter=orthogonalPerimeter;outlineConnect=0;targetShapes=umlLifeline;portConstraint=eastwest;newEdgeStyle={&quot;edgeStyle&quot;:&quot;elbowEdgeStyle&quot;,&quot;elbow&quot;:&quot;vertical&quot;,&quot;curved&quot;:0,&quot;rounded&quot;:0};" vertex="1" parent="487QMyiR4DsZ86P_ElJE-9">
          <mxGeometry x="45" y="290" width="10" height="1450" as="geometry" />
        </mxCell>
        <mxCell id="487QMyiR4DsZ86P_ElJE-11" value=":PromotionalCodes" style="shape=umlLifeline;perimeter=lifelinePerimeter;whiteSpace=wrap;html=1;container=0;dropTarget=0;collapsible=0;recursiveResize=0;outlineConnect=0;portConstraint=eastwest;newEdgeStyle={&quot;edgeStyle&quot;:&quot;elbowEdgeStyle&quot;,&quot;elbow&quot;:&quot;vertical&quot;,&quot;curved&quot;:0,&quot;rounded&quot;:0};fillColor=#EA6B66;" vertex="1" parent="1">
          <mxGeometry x="1240" y="100" width="100" height="1740" as="geometry" />
        </mxCell>
        <mxCell id="487QMyiR4DsZ86P_ElJE-12" value="" style="html=1;points=[];perimeter=orthogonalPerimeter;outlineConnect=0;targetShapes=umlLifeline;portConstraint=eastwest;newEdgeStyle={&quot;edgeStyle&quot;:&quot;elbowEdgeStyle&quot;,&quot;elbow&quot;:&quot;vertical&quot;,&quot;curved&quot;:0,&quot;rounded&quot;:0};" vertex="1" parent="487QMyiR4DsZ86P_ElJE-11">
          <mxGeometry x="45" y="670" width="10" height="1070" as="geometry" />
        </mxCell>
        <mxCell id="487QMyiR4DsZ86P_ElJE-13" value=":Price" style="shape=umlLifeline;perimeter=lifelinePerimeter;whiteSpace=wrap;html=1;container=0;dropTarget=0;collapsible=0;recursiveResize=0;outlineConnect=0;portConstraint=eastwest;newEdgeStyle={&quot;edgeStyle&quot;:&quot;elbowEdgeStyle&quot;,&quot;elbow&quot;:&quot;vertical&quot;,&quot;curved&quot;:0,&quot;rounded&quot;:0};fillColor=#EA6B66;" vertex="1" parent="1">
          <mxGeometry x="1400" y="100" width="100" height="1740" as="geometry" />
        </mxCell>
        <mxCell id="487QMyiR4DsZ86P_ElJE-14" value="" style="html=1;points=[];perimeter=orthogonalPerimeter;outlineConnect=0;targetShapes=umlLifeline;portConstraint=eastwest;newEdgeStyle={&quot;edgeStyle&quot;:&quot;elbowEdgeStyle&quot;,&quot;elbow&quot;:&quot;vertical&quot;,&quot;curved&quot;:0,&quot;rounded&quot;:0};" vertex="1" parent="487QMyiR4DsZ86P_ElJE-13">
          <mxGeometry x="45" y="320" width="10" height="1420" as="geometry" />
        </mxCell>
        <mxCell id="487QMyiR4DsZ86P_ElJE-15" value="Return Booking Info" style="html=1;verticalAlign=bottom;endArrow=open;dashed=1;endSize=8;edgeStyle=elbowEdgeStyle;elbow=horizontal;curved=0;rounded=0;" edge="1" parent="1">
          <mxGeometry x="-0.0667" relative="1" as="geometry">
            <mxPoint x="800" y="320" as="targetPoint" />
            <Array as="points">
              <mxPoint x="915" y="320" />
            </Array>
            <mxPoint x="950" y="320" as="sourcePoint" />
            <mxPoint x="-1" as="offset" />
          </mxGeometry>
        </mxCell>
        <mxCell id="487QMyiR4DsZ86P_ElJE-16" value="UpdateAmountWithDiscount()" style="html=1;verticalAlign=bottom;endArrow=block;edgeStyle=elbowEdgeStyle;elbow=vertical;curved=0;rounded=0;" edge="1" parent="1">
          <mxGeometry relative="1" as="geometry">
            <mxPoint x="812.5" y="1020" as="sourcePoint" />
            <Array as="points">
              <mxPoint x="1102.5" y="1020" />
              <mxPoint x="1057.5" y="1010" />
            </Array>
            <mxPoint x="1447.5" y="1020" as="targetPoint" />
            <mxPoint as="offset" />
          </mxGeometry>
        </mxCell>
        <mxCell id="487QMyiR4DsZ86P_ElJE-17" value="Return Total Fare" style="html=1;verticalAlign=bottom;endArrow=open;dashed=1;endSize=8;edgeStyle=elbowEdgeStyle;elbow=vertical;curved=0;rounded=0;" edge="1" parent="1" source="487QMyiR4DsZ86P_ElJE-9">
          <mxGeometry x="-0.0465" relative="1" as="geometry">
            <mxPoint x="970" y="590" as="targetPoint" />
            <Array as="points">
              <mxPoint x="1075" y="590" />
            </Array>
            <mxPoint x="1060" y="600" as="sourcePoint" />
            <mxPoint as="offset" />
          </mxGeometry>
        </mxCell>
        <mxCell id="487QMyiR4DsZ86P_ElJE-41" style="edgeStyle=orthogonalEdgeStyle;rounded=0;orthogonalLoop=1;jettySize=auto;html=1;" edge="1" parent="1" source="487QMyiR4DsZ86P_ElJE-19">
          <mxGeometry relative="1" as="geometry">
            <mxPoint x="330" y="750" as="targetPoint" />
            <Array as="points">
              <mxPoint x="330" y="310" />
              <mxPoint x="330" y="310" />
            </Array>
          </mxGeometry>
        </mxCell>
        <mxCell id="487QMyiR4DsZ86P_ElJE-49" style="edgeStyle=orthogonalEdgeStyle;rounded=0;orthogonalLoop=1;jettySize=auto;html=1;" edge="1" parent="1" source="487QMyiR4DsZ86P_ElJE-19">
          <mxGeometry relative="1" as="geometry">
            <mxPoint x="320" y="1100" as="targetPoint" />
            <Array as="points">
              <mxPoint x="330" y="675" />
              <mxPoint x="320" y="675" />
            </Array>
          </mxGeometry>
        </mxCell>
        <mxCell id="487QMyiR4DsZ86P_ElJE-19" value="Customer" style="shape=umlActor;verticalLabelPosition=bottom;verticalAlign=top;html=1;outlineConnect=0;fillColor=#EA6B66;" vertex="1" parent="1">
          <mxGeometry x="300" y="180" width="30" height="70" as="geometry" />
        </mxCell>
        <mxCell id="487QMyiR4DsZ86P_ElJE-20" value="RetrieveBookingInfo()" style="html=1;verticalAlign=bottom;endArrow=block;edgeStyle=elbowEdgeStyle;elbow=vertical;curved=0;rounded=0;" edge="1" parent="1">
          <mxGeometry relative="1" as="geometry">
            <mxPoint x="810" y="270" as="sourcePoint" />
            <Array as="points">
              <mxPoint x="940" y="270" />
              <mxPoint x="895" y="260" />
            </Array>
            <mxPoint x="950" y="270" as="targetPoint" />
            <mxPoint x="-1" as="offset" />
          </mxGeometry>
        </mxCell>
        <mxCell id="487QMyiR4DsZ86P_ElJE-24" value="CalculateTotalFare()" style="html=1;verticalAlign=bottom;endArrow=block;edgeStyle=elbowEdgeStyle;elbow=horizontal;curved=0;rounded=0;" edge="1" parent="1">
          <mxGeometry relative="1" as="geometry">
            <mxPoint x="969" y="410" as="sourcePoint" />
            <Array as="points" />
            <mxPoint x="1129" y="410" as="targetPoint" />
            <mxPoint x="-1" as="offset" />
          </mxGeometry>
        </mxCell>
        <mxCell id="487QMyiR4DsZ86P_ElJE-25" value="Display Error &quot;Discount Code/Voucher/Promo not valid&quot;" style="html=1;verticalAlign=bottom;endArrow=open;dashed=1;endSize=8;edgeStyle=elbowEdgeStyle;elbow=horizontal;curved=0;rounded=0;" edge="1" parent="1">
          <mxGeometry x="-0.0645" relative="1" as="geometry">
            <mxPoint x="570" y="860" as="targetPoint" />
            <Array as="points">
              <mxPoint x="1250" y="860" />
            </Array>
            <mxPoint x="1285" y="860" as="sourcePoint" />
            <mxPoint as="offset" />
          </mxGeometry>
        </mxCell>
        <mxCell id="487QMyiR4DsZ86P_ElJE-26" value="ValidateAccount()" style="html=1;verticalAlign=bottom;endArrow=block;edgeStyle=elbowEdgeStyle;elbow=vertical;curved=0;rounded=0;" edge="1" parent="1">
          <mxGeometry relative="1" as="geometry">
            <mxPoint x="806.87" y="1150" as="sourcePoint" />
            <Array as="points">
              <mxPoint x="941.87" y="1150" />
              <mxPoint x="896.87" y="1140" />
            </Array>
            <mxPoint x="1590" y="1150" as="targetPoint" />
            <mxPoint x="-1" as="offset" />
          </mxGeometry>
        </mxCell>
        <mxCell id="487QMyiR4DsZ86P_ElJE-27" value="Return Discounted Price" style="html=1;verticalAlign=bottom;endArrow=open;dashed=1;endSize=8;edgeStyle=elbowEdgeStyle;elbow=horizontal;curved=0;rounded=0;" edge="1" parent="1">
          <mxGeometry x="-0.0645" relative="1" as="geometry">
            <mxPoint x="810" y="1050" as="targetPoint" />
            <Array as="points">
              <mxPoint x="1400" y="1050" />
            </Array>
            <mxPoint x="1435" y="1050" as="sourcePoint" />
            <mxPoint as="offset" />
          </mxGeometry>
        </mxCell>
        <mxCell id="487QMyiR4DsZ86P_ElJE-28" value="Return Updated Fare" style="html=1;verticalAlign=bottom;endArrow=open;dashed=1;endSize=8;edgeStyle=elbowEdgeStyle;elbow=horizontal;curved=0;rounded=0;" edge="1" parent="1">
          <mxGeometry x="-0.0645" relative="1" as="geometry">
            <mxPoint x="570" y="1080" as="targetPoint" />
            <Array as="points">
              <mxPoint x="760" y="1080" />
            </Array>
            <mxPoint x="795" y="1080" as="sourcePoint" />
            <mxPoint as="offset" />
          </mxGeometry>
        </mxCell>
        <mxCell id="487QMyiR4DsZ86P_ElJE-29" value="Display Final Amount and booking Summary" style="html=1;verticalAlign=bottom;endArrow=open;dashed=1;endSize=8;edgeStyle=elbowEdgeStyle;elbow=horizontal;curved=0;rounded=0;" edge="1" parent="1">
          <mxGeometry x="-0.0645" relative="1" as="geometry">
            <mxPoint x="560" y="680" as="targetPoint" />
            <Array as="points">
              <mxPoint x="750" y="680" />
            </Array>
            <mxPoint x="785" y="680" as="sourcePoint" />
            <mxPoint as="offset" />
          </mxGeometry>
        </mxCell>
        <mxCell id="487QMyiR4DsZ86P_ElJE-30" value=":PaymentMethod" style="shape=umlLifeline;perimeter=lifelinePerimeter;whiteSpace=wrap;html=1;container=0;dropTarget=0;collapsible=0;recursiveResize=0;outlineConnect=0;portConstraint=eastwest;newEdgeStyle={&quot;edgeStyle&quot;:&quot;elbowEdgeStyle&quot;,&quot;elbow&quot;:&quot;vertical&quot;,&quot;curved&quot;:0,&quot;rounded&quot;:0};fillColor=#EA6B66;" vertex="1" parent="1">
          <mxGeometry x="1550" y="100" width="100" height="1740" as="geometry" />
        </mxCell>
        <mxCell id="487QMyiR4DsZ86P_ElJE-31" value="" style="html=1;points=[];perimeter=orthogonalPerimeter;outlineConnect=0;targetShapes=umlLifeline;portConstraint=eastwest;newEdgeStyle={&quot;edgeStyle&quot;:&quot;elbowEdgeStyle&quot;,&quot;elbow&quot;:&quot;vertical&quot;,&quot;curved&quot;:0,&quot;rounded&quot;:0};" vertex="1" parent="487QMyiR4DsZ86P_ElJE-30">
          <mxGeometry x="45" y="1020" width="10" height="720" as="geometry" />
        </mxCell>
        <mxCell id="487QMyiR4DsZ86P_ElJE-32" value=":ETicket" style="shape=umlLifeline;perimeter=lifelinePerimeter;whiteSpace=wrap;html=1;container=0;dropTarget=0;collapsible=0;recursiveResize=0;outlineConnect=0;portConstraint=eastwest;newEdgeStyle={&quot;edgeStyle&quot;:&quot;elbowEdgeStyle&quot;,&quot;elbow&quot;:&quot;vertical&quot;,&quot;curved&quot;:0,&quot;rounded&quot;:0};fillColor=#EA6B66;" vertex="1" parent="1">
          <mxGeometry x="1700" y="100" width="100" height="1740" as="geometry" />
        </mxCell>
        <mxCell id="487QMyiR4DsZ86P_ElJE-33" value="" style="html=1;points=[];perimeter=orthogonalPerimeter;outlineConnect=0;targetShapes=umlLifeline;portConstraint=eastwest;newEdgeStyle={&quot;edgeStyle&quot;:&quot;elbowEdgeStyle&quot;,&quot;elbow&quot;:&quot;vertical&quot;,&quot;curved&quot;:0,&quot;rounded&quot;:0};" vertex="1" parent="487QMyiR4DsZ86P_ElJE-32">
          <mxGeometry x="45" y="1480" width="10" height="260" as="geometry" />
        </mxCell>
        <mxCell id="487QMyiR4DsZ86P_ElJE-34" value=":BookingCatalogue" style="shape=umlLifeline;perimeter=lifelinePerimeter;whiteSpace=wrap;html=1;container=0;dropTarget=0;collapsible=0;recursiveResize=0;outlineConnect=0;portConstraint=eastwest;newEdgeStyle={&quot;edgeStyle&quot;:&quot;elbowEdgeStyle&quot;,&quot;elbow&quot;:&quot;vertical&quot;,&quot;curved&quot;:0,&quot;rounded&quot;:0};fillColor=#EA6B66;" vertex="1" parent="1">
          <mxGeometry x="1870" y="100" width="100" height="1740" as="geometry" />
        </mxCell>
        <mxCell id="487QMyiR4DsZ86P_ElJE-35" value="" style="html=1;points=[];perimeter=orthogonalPerimeter;outlineConnect=0;targetShapes=umlLifeline;portConstraint=eastwest;newEdgeStyle={&quot;edgeStyle&quot;:&quot;elbowEdgeStyle&quot;,&quot;elbow&quot;:&quot;vertical&quot;,&quot;curved&quot;:0,&quot;rounded&quot;:0};" vertex="1" parent="487QMyiR4DsZ86P_ElJE-34">
          <mxGeometry x="45" y="1570" width="10" height="170" as="geometry" />
        </mxCell>
        <mxCell id="487QMyiR4DsZ86P_ElJE-36" value=":BookingHistory" style="shape=umlLifeline;perimeter=lifelinePerimeter;whiteSpace=wrap;html=1;container=0;dropTarget=0;collapsible=0;recursiveResize=0;outlineConnect=0;portConstraint=eastwest;newEdgeStyle={&quot;edgeStyle&quot;:&quot;elbowEdgeStyle&quot;,&quot;elbow&quot;:&quot;vertical&quot;,&quot;curved&quot;:0,&quot;rounded&quot;:0};fillColor=#EA6B66;" vertex="1" parent="1">
          <mxGeometry x="2030" y="100" width="100" height="1740" as="geometry" />
        </mxCell>
        <mxCell id="487QMyiR4DsZ86P_ElJE-37" value="" style="html=1;points=[];perimeter=orthogonalPerimeter;outlineConnect=0;targetShapes=umlLifeline;portConstraint=eastwest;newEdgeStyle={&quot;edgeStyle&quot;:&quot;elbowEdgeStyle&quot;,&quot;elbow&quot;:&quot;vertical&quot;,&quot;curved&quot;:0,&quot;rounded&quot;:0};" vertex="1" parent="487QMyiR4DsZ86P_ElJE-36">
          <mxGeometry x="45" y="1620" width="10" height="120" as="geometry" />
        </mxCell>
        <mxCell id="487QMyiR4DsZ86P_ElJE-38" value="ProceedToPayment()" style="html=1;verticalAlign=bottom;endArrow=block;edgeStyle=elbowEdgeStyle;elbow=vertical;curved=0;rounded=0;" edge="1" parent="1">
          <mxGeometry relative="1" as="geometry">
            <mxPoint x="810" y="370" as="sourcePoint" />
            <Array as="points">
              <mxPoint x="940" y="370" />
              <mxPoint x="895" y="360" />
            </Array>
            <mxPoint x="950" y="370" as="targetPoint" />
            <mxPoint x="-1" as="offset" />
          </mxGeometry>
        </mxCell>
        <mxCell id="487QMyiR4DsZ86P_ElJE-39" value="Return Payment Info" style="html=1;verticalAlign=bottom;endArrow=open;dashed=1;endSize=8;edgeStyle=elbowEdgeStyle;elbow=horizontal;curved=0;rounded=0;" edge="1" parent="1">
          <mxGeometry x="-0.0667" relative="1" as="geometry">
            <mxPoint x="810" y="640" as="targetPoint" />
            <Array as="points">
              <mxPoint x="925" y="640" />
            </Array>
            <mxPoint x="960" y="640" as="sourcePoint" />
            <mxPoint x="-1" as="offset" />
          </mxGeometry>
        </mxCell>
        <mxCell id="487QMyiR4DsZ86P_ElJE-40" value="Apply discount code/voucher/promo" style="html=1;verticalAlign=bottom;startArrow=oval;endArrow=block;startSize=8;edgeStyle=elbowEdgeStyle;elbow=horizontal;curved=0;rounded=0;" edge="1" parent="1">
          <mxGeometry x="0.0083" relative="1" as="geometry">
            <mxPoint x="330" y="740" as="sourcePoint" />
            <mxPoint x="560" y="740" as="targetPoint" />
            <Array as="points">
              <mxPoint x="540" y="740" />
            </Array>
            <mxPoint as="offset" />
          </mxGeometry>
        </mxCell>
        <mxCell id="487QMyiR4DsZ86P_ElJE-42" value="ApplyCode()" style="html=1;verticalAlign=bottom;endArrow=block;edgeStyle=elbowEdgeStyle;elbow=vertical;curved=0;rounded=0;entryX=0.456;entryY=0.205;entryDx=0;entryDy=0;entryPerimeter=0;" edge="1" parent="1">
          <mxGeometry x="-0.0369" relative="1" as="geometry">
            <mxPoint x="570" y="770" as="sourcePoint" />
            <Array as="points">
              <mxPoint x="710" y="770" />
              <mxPoint x="665" y="760" />
            </Array>
            <mxPoint x="796" y="771" as="targetPoint" />
            <mxPoint as="offset" />
          </mxGeometry>
        </mxCell>
        <mxCell id="487QMyiR4DsZ86P_ElJE-43" value="CheckValidity()" style="html=1;verticalAlign=bottom;endArrow=block;edgeStyle=elbowEdgeStyle;elbow=vertical;curved=0;rounded=0;" edge="1" parent="1">
          <mxGeometry relative="1" as="geometry">
            <mxPoint x="805" y="790" as="sourcePoint" />
            <Array as="points">
              <mxPoint x="1195" y="790" />
              <mxPoint x="895" y="780" />
            </Array>
            <mxPoint x="1275" y="790" as="targetPoint" />
            <mxPoint x="-1" as="offset" />
          </mxGeometry>
        </mxCell>
        <mxCell id="487QMyiR4DsZ86P_ElJE-44" value="if not valid" style="shape=umlFrame;whiteSpace=wrap;html=1;pointerEvents=0;fillColor=#CC6600;" vertex="1" parent="1">
          <mxGeometry x="750" y="820" width="560" height="160" as="geometry" />
        </mxCell>
        <mxCell id="487QMyiR4DsZ86P_ElJE-45" value="else" style="shape=umlFrame;whiteSpace=wrap;html=1;pointerEvents=0;fillColor=#CC6600;" vertex="1" parent="1">
          <mxGeometry x="750" y="890" width="560" height="90" as="geometry" />
        </mxCell>
        <mxCell id="487QMyiR4DsZ86P_ElJE-46" value="Return valid promo code with discount" style="html=1;verticalAlign=bottom;endArrow=open;dashed=1;endSize=8;edgeStyle=elbowEdgeStyle;elbow=horizontal;curved=0;rounded=0;" edge="1" parent="1">
          <mxGeometry x="-0.0645" relative="1" as="geometry">
            <mxPoint x="803.75" y="940" as="targetPoint" />
            <Array as="points">
              <mxPoint x="1241.25" y="940" />
            </Array>
            <mxPoint x="1276.25" y="940" as="sourcePoint" />
            <mxPoint as="offset" />
          </mxGeometry>
        </mxCell>
        <mxCell id="487QMyiR4DsZ86P_ElJE-47" value="Enter Payment Details and click pay now" style="html=1;verticalAlign=bottom;startArrow=oval;endArrow=block;startSize=8;edgeStyle=elbowEdgeStyle;elbow=horizontal;curved=0;rounded=0;" edge="1" parent="1">
          <mxGeometry x="0.0083" relative="1" as="geometry">
            <mxPoint x="320" y="1100" as="sourcePoint" />
            <mxPoint x="560" y="1100" as="targetPoint" />
            <Array as="points">
              <mxPoint x="540" y="1100" />
            </Array>
            <mxPoint as="offset" />
          </mxGeometry>
        </mxCell>
        <mxCell id="487QMyiR4DsZ86P_ElJE-50" value="if details not valid" style="shape=umlFrame;whiteSpace=wrap;html=1;pointerEvents=0;fillColor=#67AB9F;" vertex="1" parent="1">
          <mxGeometry x="770" y="1180" width="870" height="160" as="geometry" />
        </mxCell>
        <mxCell id="487QMyiR4DsZ86P_ElJE-51" value="else" style="shape=umlFrame;whiteSpace=wrap;html=1;pointerEvents=0;fillColor=#67AB9F;" vertex="1" parent="1">
          <mxGeometry x="770" y="1260" width="870" height="80" as="geometry" />
        </mxCell>
        <mxCell id="487QMyiR4DsZ86P_ElJE-52" value="PaymentRequest()" style="html=1;verticalAlign=bottom;endArrow=block;edgeStyle=elbowEdgeStyle;elbow=vertical;curved=0;rounded=0;entryX=0.456;entryY=0.205;entryDx=0;entryDy=0;entryPerimeter=0;" edge="1" parent="1">
          <mxGeometry x="-0.0369" relative="1" as="geometry">
            <mxPoint x="570" y="1130" as="sourcePoint" />
            <Array as="points">
              <mxPoint x="710" y="1130" />
              <mxPoint x="665" y="1120" />
            </Array>
            <mxPoint x="796" y="1131" as="targetPoint" />
            <mxPoint as="offset" />
          </mxGeometry>
        </mxCell>
        <mxCell id="487QMyiR4DsZ86P_ElJE-53" value="Display Error &quot;Invalid Payment Details&quot;" style="html=1;verticalAlign=bottom;endArrow=open;dashed=1;endSize=8;edgeStyle=elbowEdgeStyle;elbow=horizontal;curved=0;rounded=0;" edge="1" parent="1">
          <mxGeometry x="-0.0645" relative="1" as="geometry">
            <mxPoint x="570" y="1230" as="targetPoint" />
            <Array as="points">
              <mxPoint x="1170" y="1230" />
            </Array>
            <mxPoint x="1590" y="1230" as="sourcePoint" />
            <mxPoint as="offset" />
          </mxGeometry>
        </mxCell>
        <mxCell id="487QMyiR4DsZ86P_ElJE-54" value="GetAmountandCurrency()" style="html=1;verticalAlign=bottom;endArrow=block;edgeStyle=elbowEdgeStyle;elbow=horizontal;curved=0;rounded=0;" edge="1" parent="1">
          <mxGeometry relative="1" as="geometry">
            <mxPoint x="1140" y="440" as="sourcePoint" />
            <Array as="points" />
            <mxPoint x="1440" y="440" as="targetPoint" />
            <mxPoint x="-1" as="offset" />
          </mxGeometry>
        </mxCell>
        <mxCell id="487QMyiR4DsZ86P_ElJE-55" value="Return Amount and Currency" style="html=1;verticalAlign=bottom;endArrow=open;dashed=1;endSize=8;edgeStyle=elbowEdgeStyle;elbow=vertical;curved=0;rounded=0;" edge="1" parent="1">
          <mxGeometry x="-0.0465" relative="1" as="geometry">
            <mxPoint x="1140" y="510" as="targetPoint" />
            <Array as="points">
              <mxPoint x="1250" y="510" />
            </Array>
            <mxPoint x="1435" y="510" as="sourcePoint" />
            <mxPoint as="offset" />
          </mxGeometry>
        </mxCell>
        <mxCell id="487QMyiR4DsZ86P_ElJE-56" value="Payment Details Valid" style="html=1;verticalAlign=bottom;endArrow=open;dashed=1;endSize=8;edgeStyle=elbowEdgeStyle;elbow=horizontal;curved=0;rounded=0;" edge="1" parent="1">
          <mxGeometry x="-0.0645" relative="1" as="geometry">
            <mxPoint x="815" y="1310" as="targetPoint" />
            <Array as="points">
              <mxPoint x="1175" y="1310" />
            </Array>
            <mxPoint x="1595" y="1310" as="sourcePoint" />
            <mxPoint as="offset" />
          </mxGeometry>
        </mxCell>
        <mxCell id="487QMyiR4DsZ86P_ElJE-57" value="InitiatePayment()" style="html=1;verticalAlign=bottom;endArrow=block;edgeStyle=elbowEdgeStyle;elbow=vertical;curved=0;rounded=0;" edge="1" parent="1">
          <mxGeometry relative="1" as="geometry">
            <mxPoint x="805" y="1360" as="sourcePoint" />
            <Array as="points">
              <mxPoint x="1035" y="1360" />
              <mxPoint x="735" y="1350" />
            </Array>
            <mxPoint x="1115" y="1360" as="targetPoint" />
            <mxPoint x="-1" as="offset" />
          </mxGeometry>
        </mxCell>
        <mxCell id="487QMyiR4DsZ86P_ElJE-59" value="confirmPayment()" style="html=1;align=left;spacingLeft=2;endArrow=block;rounded=0;edgeStyle=orthogonalEdgeStyle;curved=0;rounded=0;" edge="1" parent="1">
          <mxGeometry relative="1" as="geometry">
            <mxPoint x="1140" y="1370" as="sourcePoint" />
            <Array as="points">
              <mxPoint x="1170" y="1400" />
            </Array>
            <mxPoint x="1145" y="1400" as="targetPoint" />
          </mxGeometry>
        </mxCell>
        <mxCell id="487QMyiR4DsZ86P_ElJE-60" value="if payment failure" style="shape=umlFrame;whiteSpace=wrap;html=1;pointerEvents=0;fillColor=#EA6B66;" vertex="1" parent="1">
          <mxGeometry x="780" y="1410" width="400" height="140" as="geometry" />
        </mxCell>
        <mxCell id="487QMyiR4DsZ86P_ElJE-61" value="Display Error &quot;Payment Failure&quot;" style="html=1;verticalAlign=bottom;endArrow=open;dashed=1;endSize=8;edgeStyle=elbowEdgeStyle;elbow=horizontal;curved=0;rounded=0;" edge="1" parent="1">
          <mxGeometry x="-0.1786" relative="1" as="geometry">
            <mxPoint x="570" y="1460" as="targetPoint" />
            <Array as="points">
              <mxPoint x="1110" y="1460" />
            </Array>
            <mxPoint x="1120" y="1460" as="sourcePoint" />
            <mxPoint x="-1" as="offset" />
          </mxGeometry>
        </mxCell>
        <mxCell id="487QMyiR4DsZ86P_ElJE-62" value="else" style="shape=umlFrame;whiteSpace=wrap;html=1;pointerEvents=0;fillColor=#EA6B66;" vertex="1" parent="1">
          <mxGeometry x="780" y="1470" width="400" height="80" as="geometry" />
        </mxCell>
        <mxCell id="487QMyiR4DsZ86P_ElJE-63" value="Payment Successful" style="html=1;verticalAlign=bottom;endArrow=open;dashed=1;endSize=8;edgeStyle=elbowEdgeStyle;elbow=horizontal;curved=0;rounded=0;" edge="1" parent="1">
          <mxGeometry x="-0.1786" relative="1" as="geometry">
            <mxPoint x="800" y="1520" as="targetPoint" />
            <Array as="points">
              <mxPoint x="1110" y="1510" />
            </Array>
            <mxPoint x="1120" y="1520" as="sourcePoint" />
            <mxPoint x="-1" as="offset" />
          </mxGeometry>
        </mxCell>
        <mxCell id="487QMyiR4DsZ86P_ElJE-64" value="GenerateETicket()" style="html=1;verticalAlign=bottom;endArrow=block;edgeStyle=elbowEdgeStyle;elbow=vertical;curved=0;rounded=0;" edge="1" parent="1">
          <mxGeometry relative="1" as="geometry">
            <mxPoint x="810" y="1580" as="sourcePoint" />
            <Array as="points">
              <mxPoint x="940" y="1580" />
              <mxPoint x="895" y="1570" />
            </Array>
            <mxPoint x="950" y="1580" as="targetPoint" />
            <mxPoint x="-1" as="offset" />
          </mxGeometry>
        </mxCell>
        <mxCell id="487QMyiR4DsZ86P_ElJE-65" value="CreateETicket()" style="html=1;verticalAlign=bottom;endArrow=block;edgeStyle=elbowEdgeStyle;elbow=vertical;curved=0;rounded=0;" edge="1" parent="1">
          <mxGeometry x="-0.0036" relative="1" as="geometry">
            <mxPoint x="970" y="1600" as="sourcePoint" />
            <Array as="points">
              <mxPoint x="1100" y="1600" />
              <mxPoint x="1055" y="1590" />
            </Array>
            <mxPoint x="1740" y="1600" as="targetPoint" />
            <mxPoint x="1" as="offset" />
          </mxGeometry>
        </mxCell>
        <mxCell id="487QMyiR4DsZ86P_ElJE-66" value="ETicket Generated with Ticket ID" style="html=1;verticalAlign=bottom;endArrow=open;dashed=1;endSize=8;edgeStyle=elbowEdgeStyle;elbow=horizontal;curved=0;rounded=0;" edge="1" parent="1">
          <mxGeometry x="-0.0645" relative="1" as="geometry">
            <mxPoint x="970" y="1630" as="targetPoint" />
            <Array as="points">
              <mxPoint x="1320" y="1630" />
            </Array>
            <mxPoint x="1740" y="1630" as="sourcePoint" />
            <mxPoint as="offset" />
          </mxGeometry>
        </mxCell>
        <mxCell id="487QMyiR4DsZ86P_ElJE-67" value="ETicket Generated" style="html=1;verticalAlign=bottom;endArrow=open;dashed=1;endSize=8;edgeStyle=elbowEdgeStyle;elbow=horizontal;curved=0;rounded=0;" edge="1" parent="1">
          <mxGeometry x="-0.0667" relative="1" as="geometry">
            <mxPoint x="810" y="1648" as="targetPoint" />
            <Array as="points">
              <mxPoint x="925" y="1648" />
            </Array>
            <mxPoint x="960" y="1648" as="sourcePoint" />
            <mxPoint x="-1" as="offset" />
          </mxGeometry>
        </mxCell>
        <mxCell id="487QMyiR4DsZ86P_ElJE-68" value="UpdateETicketInBooking()" style="html=1;verticalAlign=bottom;endArrow=block;edgeStyle=elbowEdgeStyle;elbow=vertical;curved=0;rounded=0;" edge="1" parent="1">
          <mxGeometry x="-0.0036" relative="1" as="geometry">
            <mxPoint x="810" y="1680" as="sourcePoint" />
            <Array as="points">
              <mxPoint x="940" y="1680" />
              <mxPoint x="895" y="1670" />
            </Array>
            <mxPoint x="1910" y="1680" as="targetPoint" />
            <mxPoint x="1" as="offset" />
          </mxGeometry>
        </mxCell>
        <mxCell id="487QMyiR4DsZ86P_ElJE-69" value="AddBookinToHistory()" style="html=1;verticalAlign=bottom;endArrow=block;edgeStyle=elbowEdgeStyle;elbow=vertical;curved=0;rounded=0;" edge="1" parent="1">
          <mxGeometry x="-0.0036" relative="1" as="geometry">
            <mxPoint x="810" y="1740" as="sourcePoint" />
            <Array as="points">
              <mxPoint x="940" y="1740" />
              <mxPoint x="895" y="1730" />
            </Array>
            <mxPoint x="2070" y="1740" as="targetPoint" />
            <mxPoint x="1" as="offset" />
          </mxGeometry>
        </mxCell>
        <mxCell id="487QMyiR4DsZ86P_ElJE-70" value="ETicket Updated" style="html=1;verticalAlign=bottom;endArrow=open;dashed=1;endSize=8;edgeStyle=elbowEdgeStyle;elbow=horizontal;curved=0;rounded=0;" edge="1" parent="1">
          <mxGeometry x="-0.0645" relative="1" as="geometry">
            <mxPoint x="810" y="1710" as="targetPoint" />
            <Array as="points">
              <mxPoint x="1170" y="1710" />
            </Array>
            <mxPoint x="1910" y="1710" as="sourcePoint" />
            <mxPoint as="offset" />
          </mxGeometry>
        </mxCell>
        <mxCell id="487QMyiR4DsZ86P_ElJE-71" value="Booking History Updated" style="html=1;verticalAlign=bottom;endArrow=open;dashed=1;endSize=8;edgeStyle=elbowEdgeStyle;elbow=horizontal;curved=0;rounded=0;" edge="1" parent="1">
          <mxGeometry x="-0.0645" relative="1" as="geometry">
            <mxPoint x="810" y="1770" as="targetPoint" />
            <Array as="points" />
            <mxPoint x="2070" y="1770" as="sourcePoint" />
            <mxPoint as="offset" />
          </mxGeometry>
        </mxCell>
        <mxCell id="487QMyiR4DsZ86P_ElJE-72" value="Payment Confirmed" style="html=1;verticalAlign=bottom;endArrow=open;dashed=1;endSize=8;edgeStyle=elbowEdgeStyle;elbow=horizontal;curved=0;rounded=0;" edge="1" parent="1">
          <mxGeometry x="-0.0645" relative="1" as="geometry">
            <mxPoint x="570" y="1820" as="targetPoint" />
            <Array as="points">
              <mxPoint x="760" y="1820" />
            </Array>
            <mxPoint x="795" y="1820" as="sourcePoint" />
            <mxPoint as="offset" />
          </mxGeometry>
        </mxCell>
      </root>
    </mxGraphModel>
  </diagram>
</mxfile>
